<mxfile host="app.diagrams.net" modified="2020-06-12T23:39:24.850Z" agent="5.0 (Macintosh; Intel Mac OS X 10_14_6) AppleWebKit/605.1.15 (KHTML, like Gecko) Version/13.1.1 Safari/605.1.15" etag="BEefOpdvbI0aypNLqvtL" version="13.2.3" type="github">
  <diagram id="-lKARfpVro_7coi3Wnwx" name="Page-1">
    <mxGraphModel dx="1694" dy="1033" grid="1" gridSize="10" guides="1" tooltips="1" connect="1" arrows="1" fold="1" page="1" pageScale="1" pageWidth="850" pageHeight="1100" math="0" shadow="0">
      <root>
        <mxCell id="0" />
        <mxCell id="1" parent="0" />
        <mxCell id="40H7sGR31eHvrxdFshzr-9" value="&lt;font style=&quot;font-size: 24px&quot;&gt;&lt;br&gt;&lt;br&gt;&lt;br&gt;&lt;br&gt;&lt;font&gt;SQL Server&lt;/font&gt;&lt;/font&gt;" style="rounded=1;whiteSpace=wrap;html=1;fillColor=#ADADAD;strokeColor=#DBDBDB;opacity=50;" vertex="1" parent="1">
          <mxGeometry x="120" y="870" width="600" height="160" as="geometry" />
        </mxCell>
        <mxCell id="40H7sGR31eHvrxdFshzr-25" style="edgeStyle=orthogonalEdgeStyle;rounded=0;orthogonalLoop=1;jettySize=auto;html=1;exitX=0.5;exitY=0;exitDx=0;exitDy=0;entryX=0.5;entryY=1;entryDx=0;entryDy=0;fontSize=12;verticalAlign=middle;startArrow=classic;startFill=1;" edge="1" parent="1" source="40H7sGR31eHvrxdFshzr-1" target="40H7sGR31eHvrxdFshzr-4">
          <mxGeometry relative="1" as="geometry" />
        </mxCell>
        <mxCell id="40H7sGR31eHvrxdFshzr-52" style="edgeStyle=orthogonalEdgeStyle;rounded=0;orthogonalLoop=1;jettySize=auto;html=1;exitX=0;exitY=0.5;exitDx=0;exitDy=0;entryX=0.5;entryY=1;entryDx=0;entryDy=0;startArrow=classic;startFill=1;fontSize=12;" edge="1" parent="1" source="40H7sGR31eHvrxdFshzr-4" target="40H7sGR31eHvrxdFshzr-51">
          <mxGeometry relative="1" as="geometry" />
        </mxCell>
        <object label="User Data" id="40H7sGR31eHvrxdFshzr-1">
          <mxCell style="shape=cylinder;whiteSpace=wrap;html=1;boundedLbl=1;backgroundOutline=1;fillColor=#dae8fc;strokeColor=#6c8ebf;" vertex="1" parent="1">
            <mxGeometry x="185" y="890" width="60" height="80" as="geometry" />
          </mxCell>
        </object>
        <mxCell id="40H7sGR31eHvrxdFshzr-26" style="edgeStyle=orthogonalEdgeStyle;rounded=0;orthogonalLoop=1;jettySize=auto;html=1;exitX=0.5;exitY=0;exitDx=0;exitDy=0;startArrow=classic;startFill=1;fontSize=12;" edge="1" parent="1" source="40H7sGR31eHvrxdFshzr-2" target="40H7sGR31eHvrxdFshzr-5">
          <mxGeometry relative="1" as="geometry" />
        </mxCell>
        <mxCell id="40H7sGR31eHvrxdFshzr-2" value="Logistics Data" style="shape=cylinder;whiteSpace=wrap;html=1;boundedLbl=1;backgroundOutline=1;fillColor=#dae8fc;strokeColor=#6c8ebf;" vertex="1" parent="1">
          <mxGeometry x="390" y="890" width="60" height="80" as="geometry" />
        </mxCell>
        <mxCell id="40H7sGR31eHvrxdFshzr-27" style="edgeStyle=orthogonalEdgeStyle;rounded=0;orthogonalLoop=1;jettySize=auto;html=1;exitX=0.5;exitY=0;exitDx=0;exitDy=0;entryX=0.5;entryY=1;entryDx=0;entryDy=0;startArrow=classic;startFill=1;fontSize=12;" edge="1" parent="1" source="40H7sGR31eHvrxdFshzr-3" target="40H7sGR31eHvrxdFshzr-6">
          <mxGeometry relative="1" as="geometry" />
        </mxCell>
        <mxCell id="40H7sGR31eHvrxdFshzr-3" value="Sensors Data" style="shape=cylinder;whiteSpace=wrap;html=1;boundedLbl=1;backgroundOutline=1;fillColor=#dae8fc;strokeColor=#6c8ebf;" vertex="1" parent="1">
          <mxGeometry x="595" y="890" width="60" height="80" as="geometry" />
        </mxCell>
        <mxCell id="40H7sGR31eHvrxdFshzr-19" style="edgeStyle=orthogonalEdgeStyle;rounded=0;orthogonalLoop=1;jettySize=auto;html=1;entryX=0.147;entryY=1.05;entryDx=0;entryDy=0;entryPerimeter=0;fontSize=18;startArrow=classic;startFill=1;" edge="1" parent="1" source="40H7sGR31eHvrxdFshzr-4" target="40H7sGR31eHvrxdFshzr-10">
          <mxGeometry relative="1" as="geometry" />
        </mxCell>
        <mxCell id="40H7sGR31eHvrxdFshzr-4" value="Users service" style="whiteSpace=wrap;html=1;aspect=fixed;" vertex="1" parent="1">
          <mxGeometry x="160" y="740" width="110" height="110" as="geometry" />
        </mxCell>
        <mxCell id="40H7sGR31eHvrxdFshzr-13" style="edgeStyle=orthogonalEdgeStyle;rounded=0;orthogonalLoop=1;jettySize=auto;html=1;fontSize=18;entryX=0.5;entryY=1;entryDx=0;entryDy=0;startArrow=classic;startFill=1;" edge="1" parent="1" source="40H7sGR31eHvrxdFshzr-5" target="40H7sGR31eHvrxdFshzr-10">
          <mxGeometry relative="1" as="geometry">
            <mxPoint x="395" y="670" as="targetPoint" />
          </mxGeometry>
        </mxCell>
        <mxCell id="40H7sGR31eHvrxdFshzr-5" value="Logistics Service" style="whiteSpace=wrap;html=1;aspect=fixed;" vertex="1" parent="1">
          <mxGeometry x="365" y="740" width="110" height="110" as="geometry" />
        </mxCell>
        <mxCell id="40H7sGR31eHvrxdFshzr-30" style="edgeStyle=orthogonalEdgeStyle;rounded=0;orthogonalLoop=1;jettySize=auto;html=1;exitX=0.5;exitY=0;exitDx=0;exitDy=0;entryX=0.853;entryY=1;entryDx=0;entryDy=0;entryPerimeter=0;startArrow=classic;startFill=1;fontSize=12;" edge="1" parent="1" source="40H7sGR31eHvrxdFshzr-6" target="40H7sGR31eHvrxdFshzr-10">
          <mxGeometry relative="1" as="geometry" />
        </mxCell>
        <mxCell id="40H7sGR31eHvrxdFshzr-6" value="Sensors service" style="whiteSpace=wrap;html=1;aspect=fixed;" vertex="1" parent="1">
          <mxGeometry x="570" y="740" width="110" height="110" as="geometry" />
        </mxCell>
        <mxCell id="40H7sGR31eHvrxdFshzr-10" value="API Gateway" style="rounded=0;whiteSpace=wrap;html=1;opacity=50;fontSize=18;" vertex="1" parent="1">
          <mxGeometry x="130" y="610" width="580" height="60" as="geometry" />
        </mxCell>
        <mxCell id="40H7sGR31eHvrxdFshzr-32" style="edgeStyle=orthogonalEdgeStyle;rounded=0;orthogonalLoop=1;jettySize=auto;html=1;entryX=0.069;entryY=0;entryDx=0;entryDy=0;entryPerimeter=0;startArrow=classic;startFill=1;fontSize=12;" edge="1" parent="1" source="40H7sGR31eHvrxdFshzr-21" target="40H7sGR31eHvrxdFshzr-10">
          <mxGeometry relative="1" as="geometry" />
        </mxCell>
        <mxCell id="40H7sGR31eHvrxdFshzr-47" style="edgeStyle=orthogonalEdgeStyle;rounded=0;orthogonalLoop=1;jettySize=auto;html=1;exitX=0.5;exitY=0;exitDx=0;exitDy=0;entryX=0.083;entryY=1.067;entryDx=0;entryDy=0;entryPerimeter=0;startArrow=classic;startFill=1;fontSize=12;" edge="1" parent="1" source="40H7sGR31eHvrxdFshzr-21" target="40H7sGR31eHvrxdFshzr-35">
          <mxGeometry relative="1" as="geometry" />
        </mxCell>
        <mxCell id="40H7sGR31eHvrxdFshzr-21" value="Web Client Machine 1&amp;nbsp;" style="whiteSpace=wrap;html=1;aspect=fixed;strokeColor=#9673a6;fillColor=#e1d5e7;fontSize=12;opacity=50;" vertex="1" parent="1">
          <mxGeometry x="130" y="450" width="80" height="80" as="geometry" />
        </mxCell>
        <mxCell id="40H7sGR31eHvrxdFshzr-33" style="edgeStyle=orthogonalEdgeStyle;rounded=0;orthogonalLoop=1;jettySize=auto;html=1;entryX=0.362;entryY=0.017;entryDx=0;entryDy=0;entryPerimeter=0;startArrow=classic;startFill=1;fontSize=12;" edge="1" parent="1" source="40H7sGR31eHvrxdFshzr-22" target="40H7sGR31eHvrxdFshzr-10">
          <mxGeometry relative="1" as="geometry" />
        </mxCell>
        <mxCell id="40H7sGR31eHvrxdFshzr-48" style="edgeStyle=orthogonalEdgeStyle;rounded=0;orthogonalLoop=1;jettySize=auto;html=1;entryX=0.367;entryY=1;entryDx=0;entryDy=0;entryPerimeter=0;startArrow=classic;startFill=1;fontSize=12;" edge="1" parent="1" source="40H7sGR31eHvrxdFshzr-22" target="40H7sGR31eHvrxdFshzr-35">
          <mxGeometry relative="1" as="geometry" />
        </mxCell>
        <mxCell id="40H7sGR31eHvrxdFshzr-22" value="&lt;span&gt;Web Client Machine 2&lt;/span&gt;" style="whiteSpace=wrap;html=1;aspect=fixed;strokeColor=#9673a6;fillColor=#e1d5e7;fontSize=12;opacity=50;" vertex="1" parent="1">
          <mxGeometry x="300" y="450" width="80" height="80" as="geometry" />
        </mxCell>
        <mxCell id="40H7sGR31eHvrxdFshzr-34" style="edgeStyle=orthogonalEdgeStyle;rounded=0;orthogonalLoop=1;jettySize=auto;html=1;entryX=0.931;entryY=-0.017;entryDx=0;entryDy=0;entryPerimeter=0;startArrow=classic;startFill=1;fontSize=12;" edge="1" parent="1" source="40H7sGR31eHvrxdFshzr-23" target="40H7sGR31eHvrxdFshzr-10">
          <mxGeometry relative="1" as="geometry" />
        </mxCell>
        <mxCell id="40H7sGR31eHvrxdFshzr-50" style="edgeStyle=orthogonalEdgeStyle;rounded=0;orthogonalLoop=1;jettySize=auto;html=1;entryX=0.917;entryY=1.017;entryDx=0;entryDy=0;entryPerimeter=0;startArrow=classic;startFill=1;fontSize=12;" edge="1" parent="1" source="40H7sGR31eHvrxdFshzr-23" target="40H7sGR31eHvrxdFshzr-35">
          <mxGeometry relative="1" as="geometry" />
        </mxCell>
        <mxCell id="40H7sGR31eHvrxdFshzr-23" value="&lt;span&gt;Web Client Machine N&amp;nbsp;&lt;/span&gt;" style="whiteSpace=wrap;html=1;aspect=fixed;strokeColor=#9673a6;fillColor=#e1d5e7;fontSize=12;opacity=50;" vertex="1" parent="1">
          <mxGeometry x="630" y="450" width="80" height="80" as="geometry" />
        </mxCell>
        <mxCell id="40H7sGR31eHvrxdFshzr-24" value="" style="endArrow=none;dashed=1;html=1;fontSize=18;entryX=0;entryY=0.5;entryDx=0;entryDy=0;exitX=1;exitY=0.5;exitDx=0;exitDy=0;" edge="1" parent="1" source="40H7sGR31eHvrxdFshzr-22" target="40H7sGR31eHvrxdFshzr-23">
          <mxGeometry width="50" height="50" relative="1" as="geometry">
            <mxPoint x="440" y="515" as="sourcePoint" />
            <mxPoint x="490" y="465" as="targetPoint" />
          </mxGeometry>
        </mxCell>
        <mxCell id="40H7sGR31eHvrxdFshzr-35" value="&lt;font style=&quot;font-size: 18px&quot;&gt;Front-End Client&lt;/font&gt;" style="shape=process;whiteSpace=wrap;html=1;backgroundOutline=1;strokeColor=#DBDBDB;fillColor=#ADADAD;fontSize=12;opacity=50;" vertex="1" parent="1">
          <mxGeometry x="120" y="310" width="600" height="60" as="geometry" />
        </mxCell>
        <mxCell id="40H7sGR31eHvrxdFshzr-40" style="edgeStyle=orthogonalEdgeStyle;rounded=0;orthogonalLoop=1;jettySize=auto;html=1;entryX=0.1;entryY=0;entryDx=0;entryDy=0;entryPerimeter=0;startArrow=classic;startFill=1;fontSize=12;" edge="1" parent="1" source="40H7sGR31eHvrxdFshzr-36" target="40H7sGR31eHvrxdFshzr-35">
          <mxGeometry relative="1" as="geometry" />
        </mxCell>
        <mxCell id="40H7sGR31eHvrxdFshzr-36" value="User 1" style="ellipse;whiteSpace=wrap;html=1;strokeColor=#d6b656;fillColor=#fff2cc;fontSize=12;opacity=50;" vertex="1" parent="1">
          <mxGeometry x="120" y="160" width="120" height="80" as="geometry" />
        </mxCell>
        <mxCell id="40H7sGR31eHvrxdFshzr-41" style="edgeStyle=orthogonalEdgeStyle;rounded=0;orthogonalLoop=1;jettySize=auto;html=1;entryX=0.417;entryY=0.033;entryDx=0;entryDy=0;entryPerimeter=0;startArrow=classic;startFill=1;fontSize=12;" edge="1" parent="1" source="40H7sGR31eHvrxdFshzr-37" target="40H7sGR31eHvrxdFshzr-35">
          <mxGeometry relative="1" as="geometry" />
        </mxCell>
        <mxCell id="40H7sGR31eHvrxdFshzr-37" value="User 2" style="ellipse;whiteSpace=wrap;html=1;strokeColor=#d6b656;fillColor=#fff2cc;fontSize=12;opacity=50;" vertex="1" parent="1">
          <mxGeometry x="310" y="160" width="120" height="80" as="geometry" />
        </mxCell>
        <mxCell id="40H7sGR31eHvrxdFshzr-44" style="edgeStyle=orthogonalEdgeStyle;rounded=0;orthogonalLoop=1;jettySize=auto;html=1;entryX=0.9;entryY=-0.017;entryDx=0;entryDy=0;entryPerimeter=0;startArrow=classic;startFill=1;fontSize=12;" edge="1" parent="1" source="40H7sGR31eHvrxdFshzr-38" target="40H7sGR31eHvrxdFshzr-35">
          <mxGeometry relative="1" as="geometry" />
        </mxCell>
        <mxCell id="40H7sGR31eHvrxdFshzr-38" value="User N" style="ellipse;whiteSpace=wrap;html=1;strokeColor=#d6b656;fillColor=#fff2cc;fontSize=12;opacity=50;" vertex="1" parent="1">
          <mxGeometry x="600" y="160" width="120" height="80" as="geometry" />
        </mxCell>
        <mxCell id="40H7sGR31eHvrxdFshzr-46" value="" style="endArrow=none;dashed=1;html=1;fontSize=12;entryX=0;entryY=0.5;entryDx=0;entryDy=0;exitX=1;exitY=0.5;exitDx=0;exitDy=0;" edge="1" parent="1" source="40H7sGR31eHvrxdFshzr-37" target="40H7sGR31eHvrxdFshzr-38">
          <mxGeometry width="50" height="50" relative="1" as="geometry">
            <mxPoint x="340" y="330" as="sourcePoint" />
            <mxPoint x="390" y="280" as="targetPoint" />
          </mxGeometry>
        </mxCell>
        <mxCell id="40H7sGR31eHvrxdFshzr-53" style="edgeStyle=orthogonalEdgeStyle;rounded=0;orthogonalLoop=1;jettySize=auto;html=1;entryX=0;entryY=0.5;entryDx=0;entryDy=0;startArrow=none;startFill=0;fontSize=12;" edge="1" parent="1" source="40H7sGR31eHvrxdFshzr-51" target="40H7sGR31eHvrxdFshzr-36">
          <mxGeometry relative="1" as="geometry">
            <Array as="points">
              <mxPoint x="50" y="200" />
            </Array>
          </mxGeometry>
        </mxCell>
        <mxCell id="40H7sGR31eHvrxdFshzr-54" style="edgeStyle=orthogonalEdgeStyle;rounded=0;orthogonalLoop=1;jettySize=auto;html=1;entryX=0.5;entryY=0;entryDx=0;entryDy=0;startArrow=none;startFill=0;fontSize=12;" edge="1" parent="1" source="40H7sGR31eHvrxdFshzr-51" target="40H7sGR31eHvrxdFshzr-37">
          <mxGeometry relative="1" as="geometry">
            <Array as="points">
              <mxPoint x="50" y="140" />
              <mxPoint x="370" y="140" />
            </Array>
          </mxGeometry>
        </mxCell>
        <mxCell id="40H7sGR31eHvrxdFshzr-55" style="edgeStyle=orthogonalEdgeStyle;rounded=0;orthogonalLoop=1;jettySize=auto;html=1;entryX=0.5;entryY=0;entryDx=0;entryDy=0;startArrow=none;startFill=0;fontSize=12;" edge="1" parent="1" source="40H7sGR31eHvrxdFshzr-51" target="40H7sGR31eHvrxdFshzr-38">
          <mxGeometry relative="1" as="geometry">
            <Array as="points">
              <mxPoint x="50" y="140" />
              <mxPoint x="660" y="140" />
            </Array>
          </mxGeometry>
        </mxCell>
        <mxCell id="40H7sGR31eHvrxdFshzr-51" value="Email service" style="ellipse;whiteSpace=wrap;html=1;aspect=fixed;fontSize=12;opacity=50;" vertex="1" parent="1">
          <mxGeometry x="10" y="530" width="80" height="80" as="geometry" />
        </mxCell>
        <object label="" id="40H7sGR31eHvrxdFshzr-56">
          <mxCell style="shape=cylinder;whiteSpace=wrap;html=1;boundedLbl=1;backgroundOutline=1;fillColor=#dae8fc;strokeColor=#6c8ebf;" vertex="1" parent="1">
            <mxGeometry x="700" y="20" width="60" height="80" as="geometry" />
          </mxCell>
        </object>
        <mxCell id="40H7sGR31eHvrxdFshzr-63" value="" style="shape=curlyBracket;whiteSpace=wrap;html=1;rounded=1;strokeColor=#82b366;strokeWidth=3;fillColor=#d5e8d4;fontSize=12;gradientColor=#97d077;" vertex="1" parent="1">
          <mxGeometry x="670" y="10" width="20" height="120" as="geometry" />
        </mxCell>
        <mxCell id="40H7sGR31eHvrxdFshzr-65" value="SQL Database" style="text;html=1;strokeColor=none;fillColor=none;align=center;verticalAlign=middle;whiteSpace=wrap;rounded=0;fontSize=19;" vertex="1" parent="1">
          <mxGeometry x="520" y="60" width="130" height="20" as="geometry" />
        </mxCell>
      </root>
    </mxGraphModel>
  </diagram>
</mxfile>
